<?xml version="1.0" encoding="UTF-8" standalone="no"?>
<svg
   xmlns:dc="http://purl.org/dc/elements/1.1/"
   xmlns:cc="http://creativecommons.org/ns#"
   xmlns:rdf="http://www.w3.org/1999/02/22-rdf-syntax-ns#"
   xmlns:svg="http://www.w3.org/2000/svg"
   xmlns="http://www.w3.org/2000/svg"
   xmlns:sodipodi="http://sodipodi.sourceforge.net/DTD/sodipodi-0.dtd"
   xmlns:inkscape="http://www.inkscape.org/namespaces/inkscape"
   inkscape:version="1.0 (1.0+r73+1)"
   sodipodi:docname="EGOI.svg"
   id="svg50"
   version="1.1"
   viewBox="0 0 217.415 70.325"
   height="24.809mm"
   width="76.699mm">
  <metadata
     id="metadata56">
    <rdf:RDF>
      <cc:Work
         rdf:about="">
        <dc:format>image/svg+xml</dc:format>
        <dc:type
           rdf:resource="http://purl.org/dc/dcmitype/StillImage" />
      </cc:Work>
    </rdf:RDF>
  </metadata>
  <defs
     id="defs54" />
  <sodipodi:namedview
     inkscape:current-layer="svg50"
     inkscape:window-maximized="0"
     inkscape:window-y="27"
     inkscape:window-x="70"
     inkscape:cy="-120.48924"
     inkscape:cx="130.10036"
     inkscape:zoom="1.6204891"
     showgrid="false"
     id="namedview52"
     inkscape:window-height="1376"
     inkscape:window-width="1245"
     inkscape:pageshadow="2"
     inkscape:pageopacity="0"
     guidetolerance="10"
     gridtolerance="10"
     objecttolerance="10"
     borderopacity="1"
     bordercolor="#666666"
     pagecolor="#ffffff" />
  <title
     id="title2">EGOI</title>
  <path
     id="path4"
     style="fill:#1e2325;fill-opacity:1"
     d="M45.13,65.459v4.389H0V2.105H44.271V6.5H4.866V33.114H39.31v4.2H4.866V65.459Z" />
  <path
     id="path6"
     style="fill:#1e2325;fill-opacity:1"
     d="M106.861,59.257q-9.828,11.07-22.8,11.068a27.879,27.879,0,0,1-12.737-2.958,32.4,32.4,0,0,1-10.066-7.824,37.207,37.207,0,0,1-6.584-11.067,34.828,34.828,0,0,1-2.385-12.594A36.2,36.2,0,0,1,54.624,23a35.812,35.812,0,0,1,6.487-10.973,31.225,31.225,0,0,1,9.876-7.585,27.95,27.95,0,0,1,12.5-2.814,34.932,34.932,0,0,1,9.112,1.1,27.714,27.714,0,0,1,7.252,3.053,23.28,23.28,0,0,1,5.533,4.675,29.106,29.106,0,0,1,3.96,5.963L105.335,18.8a21.794,21.794,0,0,0-9.112-9.685,27.009,27.009,0,0,0-12.833-3A22.888,22.888,0,0,0,72.513,8.689a26.83,26.83,0,0,0-8.3,6.774,30.276,30.276,0,0,0-5.247,9.542,33.913,33.913,0,0,0-1.813,10.971,31.338,31.338,0,0,0,7.871,20.9,28.056,28.056,0,0,0,8.635,6.535,23.944,23.944,0,0,0,10.686,2.434,25.465,25.465,0,0,0,11.783-2.863,35.055,35.055,0,0,0,10.734-9.064V40.843H91.5V36.931h19.56V69.848h-4.2Z" />
  <path
     id="path8"
     style="fill:#1e2325;fill-opacity:1"
     d="M212.549,69.848V2.105h4.866V69.848Z" />
  <path
     id="path10"
     style="fill:#f4c300"
     d="M141.529,56.576a4.841,4.841,0,0,0-1.07.06,5.57,5.57,0,0,0-2.04.75,2.284,2.284,0,0,1-.22-.22,53.4,53.4,0,0,1-1.17-10.72q1.695,1.95,3.56,3.74A47.321,47.321,0,0,0,141.529,56.576Z" />
  <path
     id="path12"
     style="fill:#0a85c7"
     d="M157.8,55.676a46.853,46.853,0,0,1-4.64,1.42,54.4,54.4,0,0,1-23.18-25.27,1.668,1.668,0,0,1,.05-.31,5.4,5.4,0,0,0,2.09-.57,5.313,5.313,0,0,0,.9-.58A50.917,50.917,0,0,0,157.8,55.676Z" />
  <path
     id="path14"
     style="fill:#0a85c7"
     d="M173.939,63.436c-.09.05-.18.1-.27.14a54.309,54.309,0,0,1-10.57-2.21q2.385-.99,4.65-2.21a50.858,50.858,0,0,0,6.36,1.07A5.656,5.656,0,0,0,173.939,63.436Z" />
  <path
     id="path16"
     style="fill:#d13337;fill-opacity:1"
     d="M178.2,49.336A54.267,54.267,0,0,1,147,63.566c-.08-.04-.17-.08-.25-.12v-.01a5.5,5.5,0,0,0,.08-2.18,5.3,5.3,0,0,0-.27-1.04,50.9,50.9,0,0,0,31.73-15.73A43.616,43.616,0,0,1,178.2,49.336Z" />
  <path
     id="path18"
     style="fill:#d13337;fill-opacity:1"
     d="M190.709,31.836a53.682,53.682,0,0,1-5.36,9.35c-.14-1.71-.37-3.42-.67-5.11a49.946,49.946,0,0,0,2.98-5.71,5.635,5.635,0,0,0,.91.58,5.348,5.348,0,0,0,2.09.57C190.679,31.626,190.7,31.726,190.709,31.836Z" />
  <path
     id="path20"
     style="fill:#009f3d"
     d="M173.029,13.806c-1.67-.39-3.36-.71-5.06-.94a50.456,50.456,0,0,0-4.51-4.62,5.624,5.624,0,0,0,2.03-2.49c.09.01.19.03.29.05A54.019,54.019,0,0,1,173.029,13.806Z" />
  <path
     id="path22"
     style="fill:#009f3d"
     d="M182.469,57.166a2.291,2.291,0,0,1-.21.23h-.01a5.4,5.4,0,0,0-3.12-.82,50.884,50.884,0,0,0-5.15-35.05,47.836,47.836,0,0,1,4.59,1.58A54.357,54.357,0,0,1,182.469,57.166Z" />
  <path
     style="fill:#1e2325;fill-opacity:1"
     id="path24"
     d="M143.119,17.076a50.45,50.45,0,0,0-2.45,4.52,47.018,47.018,0,0,0-5.73,2.85,4.631,4.631,0,0,0-.39-.99,5.5,5.5,0,0,0-1.34-1.71,2,2,0,0,1,.15-.29A53.87,53.87,0,0,1,143.119,17.076Z" />
  <path
     style="fill:#1e2325;fill-opacity:1"
     id="path26"
     d="M187.479,21.746a5.533,5.533,0,0,0-1.35,1.71,4.79,4.79,0,0,0-.39,1.01,50.868,50.868,0,0,0-34.98-5.91,45.718,45.718,0,0,1,2.95-3.89,54.33,54.33,0,0,1,33.63,6.81A1.739,1.739,0,0,1,187.479,21.746Z" />
  <path
     id="path28"
     style="fill:#0a85c7"
     d="M190.619,20.436a5.434,5.434,0,0,0-1.25.25,5.3,5.3,0,0,0-1.75.95c-.09-.05-.18-.11-.28-.16a30.672,30.672,0,0,0-21.56-15.67,1.507,1.507,0,0,0-.23-.21,5.544,5.544,0,0,0,.36-1.96,5.237,5.237,0,0,0-.15-1.26,34.09,34.09,0,0,1,24.86,18.06Z" />
  <path
     id="path30"
     style="fill:#009f3d"
     d="M138.279,57.486a5.4,5.4,0,0,0-1.45,1.37,5.723,5.723,0,0,0-.62,1.1,34,34,0,0,1-9.49-29.21,5.022,5.022,0,0,0,1.15.53,5.73,5.73,0,0,0,1.73.27,1.055,1.055,0,0,0,.25-.02c.04.1.08.2.13.3a30.682,30.682,0,0,0,8.22,25.34A1.873,1.873,0,0,0,138.279,57.486Z" />
  <path
     style="fill:#1e2325;fill-opacity:1"
     id="path32"
     d="M175.7,66.336a34.061,34.061,0,0,1-30.72,0,5.079,5.079,0,0,0,.86-.93,5.479,5.479,0,0,0,.86-1.81,1.526,1.526,0,0,0,.3-.03,30.722,30.722,0,0,0,26.67.01,1.553,1.553,0,0,0,.31.03,5.624,5.624,0,0,0,.86,1.8A5.079,5.079,0,0,0,175.7,66.336Z" />
  <path
     id="path34"
     style="fill:#f4c300"
     d="M192.7,46.486a33.7,33.7,0,0,1-8.23,13.47,5.723,5.723,0,0,0-.62-1.1,5.49,5.49,0,0,0-1.44-1.37c.02-.11.04-.21.06-.32a30.6,30.6,0,0,0,8.24-25.33,1.692,1.692,0,0,0,.13-.31,1.055,1.055,0,0,0,.25.02,5.619,5.619,0,0,0,1.72-.27,5.022,5.022,0,0,0,1.15-.53A33.7,33.7,0,0,1,192.7,46.486Z" />
  <path
     id="path36"
     style="fill:#d13337;fill-opacity:1"
     d="M155.139,5.606a2.2,2.2,0,0,0-.23.2,30.622,30.622,0,0,0-21.55,15.65c-.1.05-.2.11-.3.17a5.541,5.541,0,0,0-3-1.19,34.09,34.09,0,0,1,24.86-18.06,5.237,5.237,0,0,0-.15,1.26A5.389,5.389,0,0,0,155.139,5.606Z" />
  <path
     id="path38"
     style="fill:#f4c300"
     d="M157.229,8.256a50.97,50.97,0,0,0-16.42,31.39,45.592,45.592,0,0,1-2.77-3.98,54.256,54.256,0,0,1,16.87-29.86,2.741,2.741,0,0,1,.28-.05A5.617,5.617,0,0,0,157.229,8.256Z" />
  <circle
     id="circle40"
     style="fill:#0a85c7"
     r="3.638"
     cy="62.131"
     cx="141.335" />
  <circle
     id="circle42"
     style="fill:#d13337;fill-opacity:1"
     r="3.638"
     cy="62.131"
     cx="179.346" />
  <circle
     id="circle44"
     style="fill:#009f3d"
     r="3.638"
     cy="25.98"
     cx="191.092" />
  <circle
     id="circle46"
     style="fill:#1e2325;fill-opacity:1"
     r="3.638"
     cy="3.638"
     cx="160.34" />
  <circle
     id="circle48"
     style="fill:#f4c300"
     r="3.638"
     cy="25.98"
     cx="129.589" />
</svg>
